<mxfile host="app.diagrams.net" modified="2023-11-28T12:51:36.343Z" agent="Mozilla/5.0 (Windows NT 10.0; Win64; x64) AppleWebKit/537.36 (KHTML, like Gecko) Chrome/118.0.0.0 Safari/537.36 OPR/104.0.0.0" etag="JQPCgKNbwnwqkjH3e8NJ" version="22.1.4" type="device">
  <diagram name="Strona-1" id="9eEYHxgnegM42kHj4ciu">
    <mxGraphModel dx="685" dy="303" grid="1" gridSize="10" guides="1" tooltips="1" connect="1" arrows="1" fold="1" page="1" pageScale="1" pageWidth="827" pageHeight="1169" math="0" shadow="0">
      <root>
        <mxCell id="0" />
        <mxCell id="1" parent="0" />
        <mxCell id="vqaEc9mcWdH16O96ctfy-1" value="Folder" style="swimlane;fontStyle=1;align=center;verticalAlign=top;childLayout=stackLayout;horizontal=1;startSize=26;horizontalStack=0;resizeParent=1;resizeParentMax=0;resizeLast=0;collapsible=1;marginBottom=0;whiteSpace=wrap;html=1;" vertex="1" parent="1">
          <mxGeometry x="160" y="70" width="190" height="240" as="geometry" />
        </mxCell>
        <mxCell id="vqaEc9mcWdH16O96ctfy-2" value="-size: int&lt;br&gt;-name: string&lt;br&gt;-address: string&lt;br&gt;-created: string&lt;br&gt;-file: File" style="text;strokeColor=none;fillColor=none;align=left;verticalAlign=top;spacingLeft=4;spacingRight=4;overflow=hidden;rotatable=0;points=[[0,0.5],[1,0.5]];portConstraint=eastwest;whiteSpace=wrap;html=1;" vertex="1" parent="vqaEc9mcWdH16O96ctfy-1">
          <mxGeometry y="26" width="190" height="94" as="geometry" />
        </mxCell>
        <mxCell id="vqaEc9mcWdH16O96ctfy-3" value="" style="line;strokeWidth=1;fillColor=none;align=left;verticalAlign=middle;spacingTop=-1;spacingLeft=3;spacingRight=3;rotatable=0;labelPosition=right;points=[];portConstraint=eastwest;strokeColor=inherit;" vertex="1" parent="vqaEc9mcWdH16O96ctfy-1">
          <mxGeometry y="120" width="190" height="8" as="geometry" />
        </mxCell>
        <mxCell id="vqaEc9mcWdH16O96ctfy-4" value="+addFile(string): void&lt;br&gt;+deleteFile(string): void&lt;br&gt;+setName(string): void&lt;br&gt;+changeAddress(string): void&lt;br&gt;+deleteFolder(string): void&lt;br&gt;+addFolder(string): void" style="text;strokeColor=none;fillColor=none;align=left;verticalAlign=top;spacingLeft=4;spacingRight=4;overflow=hidden;rotatable=0;points=[[0,0.5],[1,0.5]];portConstraint=eastwest;whiteSpace=wrap;html=1;" vertex="1" parent="vqaEc9mcWdH16O96ctfy-1">
          <mxGeometry y="128" width="190" height="112" as="geometry" />
        </mxCell>
        <mxCell id="vqaEc9mcWdH16O96ctfy-5" value="File" style="swimlane;fontStyle=1;align=center;verticalAlign=top;childLayout=stackLayout;horizontal=1;startSize=26;horizontalStack=0;resizeParent=1;resizeParentMax=0;resizeLast=0;collapsible=1;marginBottom=0;whiteSpace=wrap;html=1;" vertex="1" parent="1">
          <mxGeometry x="440" y="70" width="230" height="200" as="geometry" />
        </mxCell>
        <mxCell id="vqaEc9mcWdH16O96ctfy-6" value="-name: string&lt;br style=&quot;border-color: var(--border-color);&quot;&gt;-size: int&lt;br style=&quot;border-color: var(--border-color);&quot;&gt;-type: string&lt;br style=&quot;border-color: var(--border-color);&quot;&gt;-address: string&lt;br&gt;-created: string" style="text;strokeColor=none;fillColor=none;align=left;verticalAlign=top;spacingLeft=4;spacingRight=4;overflow=hidden;rotatable=0;points=[[0,0.5],[1,0.5]];portConstraint=eastwest;whiteSpace=wrap;html=1;" vertex="1" parent="vqaEc9mcWdH16O96ctfy-5">
          <mxGeometry y="26" width="230" height="94" as="geometry" />
        </mxCell>
        <mxCell id="vqaEc9mcWdH16O96ctfy-7" value="" style="line;strokeWidth=1;fillColor=none;align=left;verticalAlign=middle;spacingTop=-1;spacingLeft=3;spacingRight=3;rotatable=0;labelPosition=right;points=[];portConstraint=eastwest;strokeColor=inherit;" vertex="1" parent="vqaEc9mcWdH16O96ctfy-5">
          <mxGeometry y="120" width="230" height="8" as="geometry" />
        </mxCell>
        <mxCell id="vqaEc9mcWdH16O96ctfy-8" value="+setName(string): void&lt;br style=&quot;border-color: var(--border-color);&quot;&gt;+changeAddress(string): void&lt;br&gt;+deleteFile(): void" style="text;strokeColor=none;fillColor=none;align=left;verticalAlign=top;spacingLeft=4;spacingRight=4;overflow=hidden;rotatable=0;points=[[0,0.5],[1,0.5]];portConstraint=eastwest;whiteSpace=wrap;html=1;" vertex="1" parent="vqaEc9mcWdH16O96ctfy-5">
          <mxGeometry y="128" width="230" height="72" as="geometry" />
        </mxCell>
        <mxCell id="vqaEc9mcWdH16O96ctfy-11" value="" style="endArrow=diamondThin;endFill=1;endSize=24;html=1;rounded=0;exitX=0.001;exitY=1.057;exitDx=0;exitDy=0;exitPerimeter=0;entryX=1.013;entryY=1.057;entryDx=0;entryDy=0;entryPerimeter=0;" edge="1" parent="1" source="vqaEc9mcWdH16O96ctfy-6" target="vqaEc9mcWdH16O96ctfy-2">
          <mxGeometry width="160" relative="1" as="geometry">
            <mxPoint x="280" y="200" as="sourcePoint" />
            <mxPoint x="390" y="160" as="targetPoint" />
          </mxGeometry>
        </mxCell>
      </root>
    </mxGraphModel>
  </diagram>
</mxfile>
